<svg width="64" height="64" version="1.1" viewBox="0 0 16.933 16.933" xmlns="http://www.w3.org/2000/svg">
 <defs>
  <linearGradient id="a" x1="47" x2="59.998" y1="41" y2="53.978" gradientTransform="translate(-.004 .27) scale(.26458)" gradientUnits="userSpaceOnUse">
   <stop offset="0"/>
   <stop stop-color="#242424" stop-opacity="0" offset="1"/>
  </linearGradient>
 </defs>
 <rect x="1.058" y="2.381" width="14.816" height="12.171" rx="1.372" ry="1.323" fill="#0d264c"/>
 <g fill="#43c4c4" id="fc">
  <path d="m8.8592 7.7475q-0.019742 0-0.24678-0.029613-0.22704-0.029613-0.55278-0.059227-0.31588-0.029613-0.56266-0.029613-0.48369 0-0.78969 0.23691-0.30601 0.22704-0.30601 0.60214v0.60214h1.8656q0.26652 0 0.26652 0.19742 0 0.20729-0.26652 0.20729h-1.8656v3.3068h1.7571q0.26652 0 0.26652 0.19742 0 0.20729-0.26652 0.20729h-3.1292q-0.26652 0-0.26652-0.20729 0-0.19742 0.26652-0.19742h0.96737v-3.3068h-0.86866q-0.26652 0-0.26652-0.20729 0-0.19742 0.26652-0.19742h0.86866v-0.60214q0-0.54291 0.42446-0.8884 0.43433-0.35536 1.0957-0.35536 0.69098 0 1.3721 0.12833 0.17768 0.049356 0.17768 0.19742 0 0.19742-0.20729 0.19742z"/>
  <path d="m14.926 12.318q0 0.08884-0.16781 0.25665-0.16781 0.15794-0.4442 0.33562-0.26652 0.17768-0.71072 0.30601t-0.90815 0.12832q-0.96737 0-1.5991-0.61201-0.62188-0.61201-0.62188-1.5596 0-0.97724 0.64163-1.609 0.64162-0.63175 1.6287-0.63175 0.91802 0 1.5399 0.54291v-0.12833q0-0.27639 0.20729-0.27639 0.19742 0 0.19742 0.27639v0.89828q0 0.26652-0.19742 0.26652-0.17768 0-0.20729-0.23691-0.029614-0.39485-0.49356-0.66137-0.45407-0.27639-1.076-0.27639-0.81931 0-1.3326 0.5133-0.50343 0.50343-0.50343 1.3129 0 0.77982 0.5133 1.2833 0.5133 0.49356 1.3227 0.49356 1.076 0 1.8459-0.71072 0.09871-0.09871 0.17768-0.09871 0.07897 0 0.12832 0.05923 0.05923 0.04936 0.05923 0.12832z"/>
 </g>
 <rect x="4.388" y="8.99" width="4.233" height=".529" ry=".265" fill="#fff" paint-order="stroke markers fill"/>
 <path d="m3.069 4.19a0.264 0.264 0 0 0-0.262 0.13 0.264 0.264 0 0 0 0.097 0.362l2.842 1.64-2.842 1.641a0.264 0.264 0 0 0-0.097 0.362c0.074 0.127 0.235 0.17 0.362 0.097l3.207-1.852a0.26 0.26 0 0 0 0.127-0.225c2e-3 -8e-3 1e-3 -0.015 2e-3 -0.022 0-8e-3 0-0.015-2e-3 -0.023a0.26 0.26 0 0 0-0.127-0.224l-3.207-1.853a0.266 0.266 0 0 0-0.1-0.033z" fill="#fff" paint-order="stroke markers fill"/>
 <path d="M15.872 9.215l-5.337 5.337h4.767c.316 0 .57-.238.57-.535V9.215z" fill="url(#a)" opacity=".15"/>
</svg>
